<svg id="Layer_1" xmlns="http://www.w3.org/2000/svg" viewBox="0 0 480.9 152"><style>.st0{fill:#59ad70}.st1{enable-background:new}.st2{fill:#fff}</style><path class="st0" d="M456.3 92.9c-15.9-19.4-31.5-39-47.9-58-7.3-8.4-16-15.6-24.3-23.1-4.9-4.7-6.1-6.6-10.2-5.4 13.6 48.7 21.2 95.4 13.6 145.7 4.8-8.3 9.3-27.9 10.2-51.7.7-18.5 1.5-33.3 1.3-51.9-.5-.1.3-.2.6.2 17.9 17.1 34.4 30.1 51.7 47.8 7 7.2 12.2 16.2 18.3 24.3.2.2 7 10.6 7.3 10.5s-4.6-14.9-4.5-15.2c-4.8-9.1-11.2-14.1-16.1-23.2z"/><path class="st0" d="M370.5 7.1c-6 3.7-7.2 8.8-7.9 14.2-1.4 11.8 2.5 22.9 5.4 34 6.5 24.8 14.9 49.2 17.1 75 .5 5.4 1.6 16.3 2.4 21.7 1.3-11.8 3.5-22.6 2.7-34.2s-9.4-76.1-19.7-110.7zm85.8 85.8l14.5 27.4 2.5 5.9 1.3-.4c-.7-3.2-1.2-6.5-2.2-9.7-11.1-35-29.1-66.2-54.2-92.9-6.1-6.5-13.5-12.3-22-15.9-4.3-1.9-9.2-2.4-13.8-1.4 5.4 5 12.4 11.5 17.5 16.3C419 40.4 436 60.6 450.7 82.5c2.1 3.3 3.8 6.9 5.6 10.4z"/><g class="st1"><path class="st2" d="M11.8 50.2c-3-1.9-5.4-4.4-7.1-7.8C3 39 2.2 35.2 2.2 30.9c0-4.6 1-8.5 2.9-11.7C7 16 9.6 13.6 12.8 12c3.2-1.6 6.6-2.4 10.3-2.4 2.5 0 4.9.3 7.1.8 2.2.5 4.4 1.3 6.8 2.5-.5 2.2-.7 5.4-.7 9.7-.9.4-2 .6-3.3.6-.2-4.2-1-7-2.6-8.6-1.5-1.6-3.8-2.3-6.8-2.3-3.4 0-6.2.8-8.4 2.4-2.2 1.6-3.8 3.7-4.9 6.2-1 2.6-1.6 5.4-1.6 8.5 0 3.7.6 7.1 1.9 10.2 1.3 3 3.1 5.4 5.5 7.1 2.4 1.7 5.2 2.6 8.5 2.6 2 0 4-.3 6.1-1 2.1-.7 4-1.6 5.8-2.7.2.2.5.5.7.9.2.4.4.7.4 1-2.5 2-5 3.4-7.4 4.2-2.4.9-5.1 1.3-8.2 1.3-3.8-.1-7.2-1-10.2-2.8zm54-4c.2.6.6 1.1 1.1 1.4.5.3 1.4.5 2.5.6 0 1.2-.1 2.2-.4 2.9-1 .1-2.2.3-3.5.7-1.3.4-2.4.8-3.3 1.3-.5-.2-.9-.6-1.1-1.2s-.4-1.4-.4-2.5c0-.7 0-1.2.1-1.6-.5 1.2-1.2 2.2-2.2 3.1C57 52.3 54.8 53 52 53c-2.6 0-4.6-.6-6-1.8-1.4-1.2-2.1-2.8-2.1-4.9 0-2.5.9-4.4 2.7-5.9 1.8-1.5 3.8-2.5 6-3.2 2.2-.6 4.6-1.1 7.3-1.5 0-2.5-.1-4.3-.2-5.3-.2-1-.5-1.8-1.1-2.5-1-1.2-2.3-1.9-3.9-1.9-1.9 0-3.2.8-4.1 2.3-.9 1.5-1.3 3.2-1.4 4.9-.5 0-1.1 0-1.8-.1s-1.1-.2-1.4-.3c0-.4.1-1.1.1-2.1 0-1.8-.1-3.4-.4-4.7 1.7-.9 3.5-1.6 5.4-2.1s3.7-.7 5.2-.7c2.8 0 5 .8 6.6 2.4 1 1 1.7 2.3 2.1 4 .4 1.6.6 3.9.6 6.8v6.9c0 1.2 0 2.2.2 2.9zm-5.9-8c-2 .2-3.7.6-5 .9-1.3.4-2.5 1-3.5 1.9-1 .9-1.5 2.2-1.5 3.9 0 1.5.4 2.6 1.1 3.3.7.8 1.6 1.1 2.7 1.1 1 0 2-.3 2.9-.9.9-.6 1.7-1.6 2.3-2.9.6-1.3.9-3 .9-4.9v-2.4zm14.6 11.7c1.7 0 2.8-.4 3.4-1.2.6-.8.9-2.2.9-4.3v-28c0-1.1-.1-1.9-.3-2.6-.2-.6-.6-1.1-1.3-1.4-.7-.3-1.7-.5-3.1-.5 0-1 .2-1.7.6-2.3 1 0 2.5-.2 4.4-.7 1.9-.4 3.2-.8 3.9-1.3.9.3 1.4 1.1 1.4 2.5v34.4c0 2.1.3 3.5.8 4.3.5.8 1.5 1.2 2.9 1.2.2.7.3 1.6.3 2.7-2.2-.1-4.5-.2-7.1-.2-2.7 0-5.1.1-7.2.2.1-1.3.2-2.2.4-2.8zm49-26.3c0 1.2-.1 2.1-.4 2.7-1.1.3-2 .8-2.6 1.6-.6.8-1.4 2.4-2.5 4.9l-9.2 21.9c-1.6 3.7-2.9 6.6-4.1 8.4-1.1 1.9-2.2 3.1-3.2 3.8-1 .7-2.2 1-3.6 1-1.9 0-3.4-.5-4.7-1.4-.1-.5-.2-1.1-.2-1.9 0-.9.1-1.8.2-2.6 1.4.2 2.7.4 4 .4 2.7 0 4.8-1.2 6.3-3.7.7-1 1.7-3 2.9-5.8-2.2-5.1-5.1-11.4-8.5-18.8-1-2.1-1.8-3.6-2.4-4.7-.6-1-1.2-1.8-1.8-2.2-.5-.4-1.2-.7-1.9-.8-.2-.8-.4-1.6-.4-2.7 3.2.1 5.5.1 7.1.1 2.1 0 4.9 0 8.3-.1 0 1.1-.1 2-.4 2.7-1.4.2-2.4.5-3.1 1s-.9 1.1-.9 1.8c0 .9.4 2.2 1.3 4.1 1.4 2.9 3.3 7.2 5.6 12.9l.6-1.4 4.3-10.9c.7-1.8 1.1-3.2 1.1-4.1 0-1-.3-1.7-.9-2.2-.6-.5-1.6-.8-2.9-1.1-.3-.8-.4-1.7-.4-2.7 1.3.1 3.4.1 6.2.1 2.8-.2 4.9-.2 6.2-.3z"/></g><g class="st1"><path class="st2" d="M139.5 52.1v6.2c0 1.8.2 3.2.6 4.1.4.9.9 1.6 1.7 1.9.8.4 1.9.6 3.3.7.2.6.3 1.5.3 2.7-1.9-.1-4.5-.2-7.9-.2-3.9 0-6.6.1-8.2.2 0-1.2.1-2.1.3-2.7 1.7-.1 2.8-.5 3.4-1.2.6-.7.9-2.1.9-4.2V32.1c0-1.1-.1-1.9-.3-2.5-.2-.6-.7-1.1-1.3-1.4-.7-.3-1.7-.5-3-.5 0-1 .2-1.7.6-2.3 1.3-.1 2.8-.3 4.4-.8 1.7-.4 3-.9 3.9-1.4.9.3 1.4 1.2 1.4 2.7 0 .7-.1 1.3-.2 1.9-.1.6-.4 1.5-.7 2.6.4-.8.9-1.7 1.4-2.6.7-1.1 1.8-2.2 3.3-3.2 1.6-1 3.3-1.5 5.2-1.5 3.8 0 6.6 1.1 8.7 3.3 2 2.2 3 5.5 3 10 0 3.1-.6 5.9-1.9 8.4-1.3 2.5-3.1 4.5-5.5 5.9-2.4 1.4-5.1 2.2-8.1 2.2-1.8 0-3.6-.3-5.3-.8zm2.2-22c-1.5 2-2.2 5-2.2 9v8.8c.8.7 1.6 1.2 2.5 1.6.9.4 1.9.6 3 .6 1.4 0 2.8-.4 4.1-1.1 1.4-.7 2.5-2 3.5-3.8 1-1.8 1.4-4.3 1.4-7.3 0-3.2-.7-5.9-2-7.8-1.3-2-3-2.9-5-2.9-2-.1-3.8.9-5.3 2.9z"/></g><g class="st1"><path class="st2" d="M197.7 52.6c-1.8-.1-4.1-.2-6.8-.2-1.7 0-3.8 0-6.2.1-.3 0-.7.1-1.2.1 0-1.2.1-2.1.3-2.7 1.5 0 2.6-.4 3.3-1.2.7-.8 1-2.2 1-4.2V35c0-2.7-.5-4.7-1.5-5.9-1-1.2-2.4-1.8-4.3-1.8-1.2 0-2.3.4-3.4 1.1-1.1.7-2 1.9-2.7 3.4-.7 1.6-1 3.6-1 5.9v6.7c0 2.1.3 3.5.9 4.3.6.8 1.8 1.2 3.4 1.2.2.6.3 1.5.3 2.7-3.5-.1-6-.2-7.4-.2-3.1 0-5.6.1-7.4.2 0-1.2.1-2.1.3-2.7 1.6 0 2.7-.4 3.4-1.2.6-.8.9-2.2.9-4.3v-28c0-1.1-.1-1.9-.3-2.6-.2-.6-.6-1.1-1.3-1.4-.7-.3-1.7-.5-3.1-.5 0-1 .2-1.7.6-2.3 1 0 2.5-.2 4.4-.7 1.9-.5 3.2-.9 3.9-1.4.9.3 1.4 1.1 1.4 2.5v15.9c0 1.3-.1 2.6-.4 3.7.1-.1.2-.3.3-.7.1-.3.3-.6.6-1 .8-1.2 2.1-2.2 3.7-3.1 1.6-.9 3.4-1.4 5.4-1.4 2.6 0 4.8.8 6.4 2.4 1.7 1.6 2.5 4.2 2.5 7.7v10.7c0 2.1.3 3.5.9 4.3.6.8 1.5 1.2 2.8 1.2.2.8.3 1.7.3 2.9zm27.3-6.4c.2.6.6 1.1 1.1 1.4.5.3 1.4.5 2.5.6 0 1.2-.1 2.2-.4 2.9-1 .1-2.2.3-3.5.7-1.3.4-2.4.8-3.3 1.3-.5-.2-.9-.6-1.1-1.2s-.4-1.4-.4-2.5c0-.7 0-1.2.1-1.6-.5 1.2-1.2 2.2-2.2 3.1-1.6 1.4-3.8 2.1-6.6 2.1-2.6 0-4.6-.6-6-1.8-1.4-1.2-2.1-2.8-2.1-4.9 0-2.5.9-4.4 2.7-5.9 1.8-1.5 3.8-2.5 6-3.2 2.2-.6 4.6-1.1 7.3-1.5 0-2.5-.1-4.3-.2-5.3-.2-1-.5-1.8-1.1-2.5-1-1.2-2.3-1.9-3.9-1.9-1.9 0-3.2.8-4.1 2.3-.9 1.5-1.3 3.2-1.4 4.9-.5 0-1.1 0-1.8-.1s-1.1-.2-1.4-.3c0-.4.1-1.1.1-2.1 0-1.8-.1-3.4-.4-4.7 1.7-.9 3.5-1.6 5.4-2.1s3.7-.7 5.2-.7c2.8 0 5 .8 6.6 2.4 1 1 1.7 2.3 2.1 4 .4 1.6.6 3.9.6 6.8v6.9c-.1 1.2 0 2.2.2 2.9zm-5.9-8c-2 .2-3.7.6-5 .9-1.3.4-2.5 1-3.5 1.9-1 .9-1.5 2.2-1.5 3.9 0 1.5.4 2.6 1.1 3.3.7.8 1.6 1.1 2.7 1.1 1 0 2-.3 2.9-.9.9-.6 1.7-1.6 2.3-2.9.6-1.3.9-3 .9-4.9v-2.4zm36.9-13c-.3 1.9-.4 4.4-.4 7.4-1.1.4-2.3.6-3.6.6-.1-1.9-.4-3.2-.9-3.8-.5-.7-1.2-1-2.2-1-.8 0-1.5.4-2.4 1.2-.8.8-1.5 1.9-2.1 3.3-.6 1.4-.8 2.8-.8 4.4v6c0 1.8.2 3.2.6 4.1.4.9.9 1.6 1.7 1.9.8.4 1.9.6 3.3.7.2.6.3 1.5.3 2.7-1.9-.1-4.5-.2-7.9-.2-3.9 0-6.6.1-8.2.2 0-1.2.1-2.1.3-2.7 1.7-.1 2.8-.5 3.4-1.2.6-.7.9-2.1.9-4.2V32.1c0-1.1-.1-1.9-.3-2.5-.2-.6-.7-1.1-1.3-1.4-.7-.3-1.7-.5-3-.5 0-1 .2-1.7.6-2.3 1.3-.1 2.8-.3 4.4-.8 1.7-.4 3-.9 3.9-1.4.9.3 1.4 1.2 1.4 2.7 0 1.4-.1 2.7-.4 4-.2 1.2-.4 1.9-.4 2.2.1-.2.2-.8.5-1.5s.5-1.3.8-1.7c2.1-3.4 4.6-5.1 7.6-5.1 1.5-.1 2.9.4 4.2 1.4zm54.3 27.4c-1.9-.1-4.1-.2-6.8-.2-2.9 0-5.4.1-7.4.2 0-1.2.1-2.1.3-2.7 1.7-.1 2.8-.5 3.4-1.2.6-.7.9-2.1.9-4.2V35c0-2.8-.5-4.8-1.5-5.9-1-1.1-2.4-1.7-4.2-1.7-1.2 0-2.3.4-3.3 1.1-1 .7-1.9 1.9-2.6 3.4-.7 1.6-1 3.6-1 5.9v6.7c0 2.1.3 3.5.9 4.2.6.7 1.8 1.1 3.4 1.2.2.6.3 1.5.3 2.7-2.1-.1-4.6-.2-7.4-.2-2.7 0-5.2.1-7.4.2 0-1.2.1-2.1.3-2.7 1.7-.1 2.8-.5 3.4-1.2.6-.7.9-2.1.9-4.2v-9.8c0-2.8-.5-4.8-1.5-5.9-1-1.1-2.4-1.7-4.2-1.7-1.2 0-2.3.4-3.3 1.1-1 .7-1.9 1.9-2.6 3.4-.7 1.6-1 3.6-1 5.9v7c0 2 .3 3.4.9 4.2s1.8 1.2 3.4 1.2c.2.6.3 1.5.3 2.7-2.1-.1-4.6-.2-7.4-.2-3 0-5.4.1-7.4.2 0-1.2.1-2.1.3-2.7 1.7-.1 2.8-.5 3.4-1.2.6-.7.9-2.1.9-4.2V32.1c0-1.1-.1-1.9-.3-2.5-.2-.6-.7-1.1-1.3-1.4-.7-.3-1.7-.5-3-.5 0-1 .2-1.7.6-2.3 1.1-.1 2.5-.3 4.2-.8s3-.9 3.8-1.3c.9.3 1.4 1.1 1.4 2.5 0 1-.1 2.3-.2 4 .5-1.2.8-1.8 1-2 .8-1.2 2-2.2 3.6-3.1 1.6-.9 3.4-1.4 5.4-1.4 1.9 0 3.5.4 4.9 1.3 1.4.9 2.4 2.2 3.1 4 .2.6.2 1.1.2 1.6.3-.8.6-1.5 1.1-2 .8-1.2 2-2.2 3.6-3.1 1.6-.9 3.3-1.4 5.3-1.4 2.6 0 4.7.8 6.3 2.4 1.6 1.6 2.5 4.2 2.5 7.7v10.7c0 2 .3 3.4.8 4.2s1.5 1.2 2.9 1.2c0 .6.1 1.5.1 2.7zm27.3-6.4c.2.6.6 1.1 1.1 1.4.5.3 1.4.5 2.5.6 0 1.2-.1 2.2-.4 2.9-1 .1-2.2.3-3.5.7-1.3.4-2.4.8-3.3 1.3-.5-.2-.9-.6-1.1-1.2s-.4-1.4-.4-2.5c0-.7 0-1.2.1-1.6-.5 1.2-1.2 2.2-2.2 3.1-1.6 1.4-3.8 2.1-6.6 2.1-2.6 0-4.6-.6-6-1.8-1.4-1.2-2.1-2.8-2.1-4.9 0-2.5.9-4.4 2.7-5.9 1.8-1.5 3.8-2.5 6-3.2 2.2-.6 4.6-1.1 7.3-1.5 0-2.5-.1-4.3-.2-5.3-.2-1-.5-1.8-1.1-2.5-1-1.2-2.3-1.9-3.9-1.9-1.9 0-3.2.8-4.1 2.3-.9 1.5-1.3 3.2-1.4 4.9-.5 0-1.1 0-1.8-.1s-1.1-.2-1.4-.3c0-.4.1-1.1.1-2.1 0-1.8-.1-3.4-.4-4.7 1.7-.9 3.5-1.6 5.4-2.1s3.7-.7 5.2-.7c2.8 0 5 .8 6.6 2.4 1 1 1.7 2.3 2.1 4 .4 1.6.6 3.9.6 6.8v6.9c-.1 1.2 0 2.2.2 2.9zm-5.9-8c-2 .2-3.7.6-5 .9-1.3.4-2.5 1-3.5 1.9-1 .9-1.5 2.2-1.5 3.9 0 1.5.4 2.6 1.1 3.3.7.8 1.6 1.1 2.7 1.1 1 0 2-.3 2.9-.9.9-.6 1.7-1.6 2.3-2.9.6-1.3.9-3 .9-4.9v-2.4z"/></g><g class="st1"><path class="st2" d="M128 103.2c-.4.6-.9 1.2-1.5 1.7s-1.3 1-2 1.4c-.8.4-1.6.7-2.5 1-.9.2-1.9.4-3 .4-1.8 0-3.5-.3-5.1-1-1.6-.6-2.9-1.5-4-2.7-1.1-1.1-2-2.5-2.6-4-.6-1.6-.9-3.2-.9-5.1 0-1.8.3-3.5 1-5.1.6-1.6 1.5-2.9 2.7-4 1.1-1.1 2.5-2 4-2.7 1.5-.6 3.2-1 5-1 .9 0 1.8.1 2.6.3.9.2 1.7.4 2.4.8.8.3 1.4.7 2.1 1.2.6.5 1.1 1 1.5 1.6l-2.1 1.5c-.3-.4-.6-.8-1-1.2-.4-.4-.9-.7-1.5-1-.6-.3-1.2-.5-1.9-.7-.7-.2-1.4-.3-2.2-.3-1.6 0-3 .3-4.2.9s-2.3 1.3-3.2 2.3c-.9 1-1.5 2.1-2 3.4-.5 1.3-.7 2.6-.7 4s.2 2.8.7 4 1.1 2.4 2 3.4c.9 1 1.9 1.7 3.2 2.3s2.6.9 4.2.9c1.4 0 2.7-.3 4-.9 1.3-.6 2.3-1.5 3.1-2.7l1.9 1.3z"/></g><g class="st1"><path class="st2" d="M157.8 95c0 1.8-.3 3.5-1 5.1-.6 1.6-1.5 2.9-2.7 4s-2.5 2-4 2.7c-1.5.6-3.2 1-5 1s-3.5-.3-5-1c-1.5-.6-2.9-1.5-4-2.7-1.1-1.1-2-2.5-2.7-4-.6-1.6-1-3.2-1-5.1 0-1.8.3-3.5 1-5.1.6-1.6 1.5-2.9 2.7-4 1.1-1.1 2.5-2 4-2.7 1.5-.6 3.2-1 5-1s3.5.3 5 1c1.5.6 2.9 1.5 4 2.7 1.1 1.1 2 2.5 2.7 4 .7 1.5 1 3.2 1 5.1zm-2.6 0c0-1.4-.2-2.8-.7-4-.5-1.3-1.1-2.4-2-3.4-.9-1-1.9-1.7-3.2-2.3s-2.6-.9-4.2-.9-2.9.3-4.2.9-2.3 1.3-3.2 2.3c-.9 1-1.5 2.1-2 3.4-.5 1.3-.7 2.6-.7 4s.2 2.8.7 4c.5 1.3 1.1 2.4 2 3.3.9 1 1.9 1.7 3.2 2.3s2.6.9 4.2.9 2.9-.3 4.2-.9 2.3-1.3 3.2-2.3c.9-1 1.5-2.1 2-3.3.5-1.2.7-2.6.7-4zm26.9 8.5l.1-20.6h2.5v24.2h-3.1l-14.1-20.8h-.1v20.8h-2.5V82.9h3.1l14.1 20.6zm22.7-16.7c-.5-.7-1.2-1.3-2-1.8-.8-.4-1.8-.7-3-.7-.6 0-1.2.1-1.8.3-.6.2-1.2.5-1.7.8-.5.4-.9.8-1.2 1.4-.3.6-.5 1.2-.5 2s.1 1.4.4 1.9c.3.5.7.9 1.2 1.3s1 .6 1.7.9c.6.2 1.3.5 2 .7.8.3 1.7.6 2.5.9.9.3 1.6.7 2.3 1.2.7.5 1.2 1.2 1.7 2 .4.8.6 1.8.6 3s-.2 2.3-.7 3.1-1.1 1.6-1.8 2.2c-.7.6-1.6 1-2.5 1.3-.9.3-1.9.4-2.9.4-.7 0-1.5-.1-2.2-.2-.7-.1-1.4-.4-2.1-.7-.7-.3-1.3-.7-1.8-1.1-.6-.5-1.1-1-1.5-1.6l2.1-1.6c.5.9 1.3 1.6 2.2 2.2.9.6 2.1.9 3.3.9.6 0 1.2-.1 1.9-.3.6-.2 1.2-.5 1.7-.9s.9-.9 1.3-1.5c.3-.6.5-1.3.5-2 0-.8-.2-1.5-.5-2.1-.3-.6-.8-1-1.3-1.4-.5-.4-1.2-.7-1.9-.9s-1.4-.5-2.2-.8c-.8-.3-1.6-.5-2.4-.9s-1.5-.7-2.1-1.2c-.6-.5-1.1-1.1-1.5-1.9-.4-.8-.6-1.7-.6-2.8 0-1.2.2-2.2.7-3s1.1-1.5 1.8-2.1c.8-.5 1.6-.9 2.5-1.2.9-.3 1.8-.4 2.7-.4 1.6 0 3 .3 4.2.9s2 1.3 2.6 2.1l-1.7 1.6zm18.5 20.9c-1.8 0-3.3-.3-4.5-.9s-2.1-1.4-2.8-2.4c-.7-1-1.2-2-1.4-3.1-.3-1.1-.4-2.2-.4-3.2V82.9h2.5v14.9c0 1 .1 1.9.3 2.9.2.9.6 1.7 1.1 2.5.5.7 1.2 1.3 2 1.7.8.4 1.9.7 3.1.7s2.3-.2 3.1-.7c.8-.4 1.5-1 2-1.7s.9-1.5 1.1-2.5c.2-.9.3-1.9.3-2.9V82.9h2.5v15.2c0 1-.1 2.1-.4 3.2-.3 1.1-.7 2.2-1.4 3.1-.7 1-1.6 1.8-2.8 2.4-1 .6-2.5.9-4.3.9z"/></g><g class="st1"><path class="st2" d="M243.3 104.9h11.3v2.2h-13.8V82.9h2.5v22z"/></g><g class="st1"><path class="st2" d="M264.9 107.1h-2.5v-22h-8.1v-2.2H273v2.2h-8.1v22zm16.1 0h-2.5V82.9h2.5v24.2zm25.6-3.6l.1-20.6h2.5v24.2h-3.1L292 86.3h-.1v20.8h-2.5V82.9h3.1l14.1 20.6zm29.3-16.2c-.8-.9-1.8-1.6-3-2.1s-2.5-.7-4-.7c-1.6 0-2.9.3-4.2.9s-2.3 1.3-3.2 2.3c-.9 1-1.5 2.1-2 3.4s-.7 2.6-.7 4 .2 2.8.7 4 1.1 2.4 2 3.3c.9 1 1.9 1.7 3.2 2.3s2.6.9 4.2.9c1.4 0 2.6-.1 3.8-.4 1.1-.3 2.1-.7 2.8-1.1v-7.4h-5.6v-2.2h8.1v10.9c-1.3.8-2.7 1.4-4.3 1.8-1.5.4-3.1.6-4.8.6-1.8 0-3.5-.3-5.1-1-1.6-.6-2.9-1.5-4-2.7-1.1-1.1-2-2.5-2.6-4-.6-1.6-.9-3.2-.9-5.1 0-1.8.3-3.5 1-5.1.6-1.6 1.5-2.9 2.7-4 1.1-1.1 2.5-2 4-2.7 1.5-.6 3.2-1 5-1 1.9 0 3.6.3 5.1.9 1.4.6 2.7 1.4 3.7 2.4l-1.9 1.8z"/></g></svg>