<svg id="Layer_1" xmlns="http://www.w3.org/2000/svg" viewBox="0 0 200 200"><style>.st0{fill:#59ad70}</style><path class="st0" d="M178.9 148c-.1.3 6.2 19.8 5.9 19.9-.3.2-9.3-13.4-9.5-13.7-7.9-10.7-14.7-22.4-23.9-31.8-22.7-23.1-44.3-40.2-67.7-62.6-.4-.5-1.4-.5-.8-.3.2 24.4-.8 43.7-1.7 67.9-1.1 31-7.1 56.8-13.3 67.6 9.9-65.7 0-126.9-17.8-190.6 5.3-1.6 6.9.9 13.3 7.1 10.9 9.7 22.3 19.2 31.8 30.2 21.4 24.8 41.9 50.5 62.7 75.9 6.3 12 14.7 18.5 21 30.4z"/><path class="st0" d="M71.3 150.4c1.1 15.1-1.8 29.3-3.5 44.7-1-7-2.5-21.3-3.1-28.4-3-33.8-13.9-65.7-22.4-98.2-3.9-14.6-8.9-29-7.1-44.5.8-7 2.5-13.7 10.3-18.6 13.6 45.3 24.8 129.7 25.8 145zm79.1-46.3c-19.3-28.8-41.5-55-66.5-78.9-6.6-6.3-15.7-14.8-22.8-21.3 7.6-1.6 13.2-.3 18.1 1.8 11.1 4.6 20.7 12.2 28.7 20.7 33 34.9 56.4 75.8 71 121.6 1.3 4.1 1.9 8.5 2.9 12.7-.6.1-1.1.3-1.7.5-1-2.5-2.1-5.1-3.2-7.7-6.3-12-12.7-23.9-19-35.9-2.5-4.5-4.7-9.2-7.5-13.5z"/></svg>