<svg id="Layer_1" data-name="Layer 1" xmlns="http://www.w3.org/2000/svg" viewBox="0 0 480.91 152.02"><defs><style>.cls-1{fill:#59ad70;}.cls-2{font-size:62.49px;fill:#fff;font-family:Vollkorn;}.cls-3{font-size:30.79px;font-family:Avenir Next;letter-spacing:1px;}.cls-4,.cls-5,.cls-6{font-size:34.21px;}.cls-5{letter-spacing:2px;}.cls-6{letter-spacing:-1px;}</style></defs><title>calypharma</title><path class="cls-1" d="M467.06,101.17c-15.92-19.38-31.53-39-47.92-58-7.27-8.42-16-15.63-24.31-23.07-4.92-4.74-6.14-6.63-10.17-5.42,13.57,48.67,21.19,95.44,13.58,145.66,4.76-8.29,9.32-27.95,10.18-51.67,0.67-18.51,1.46-33.27,1.26-51.86-0.46-.13.27-0.15,0.64,0.21C428.21,74.12,444.7,87.15,462,104.81c7,7.17,12.24,16.16,18.3,24.31,0.16,0.21,7.05,10.6,7.28,10.5s-4.61-14.95-4.49-15.22C478.3,115.28,471.91,110.31,467.06,101.17Z" transform="translate(-6.72 -8.31)"/><path class="cls-1" d="M381.2,15.39c-6,3.73-7.22,8.84-7.85,14.21-1.38,11.82,2.48,22.86,5.39,34,6.5,24.83,14.86,49.23,17.12,75,0.47,5.42,1.62,16.33,2.39,21.71,1.3-11.75,3.51-22.65,2.71-34.16S391.56,50,381.2,15.39Z" transform="translate(-6.72 -8.31)"/><path class="cls-1" d="M467.06,101.17l14.53,27.41,2.48,5.92,1.32-.41c-0.74-3.23-1.25-6.54-2.25-9.69-11.14-35-29.06-66.23-54.24-92.95-6.09-6.46-13.46-12.27-22-15.86a21.91,21.91,0,0,0-13.83-1.35c5.39,5,12.4,11.48,17.45,16.31a361.88,361.88,0,0,1,50.79,60.3C463.53,94.11,465.17,97.72,467.06,101.17Z" transform="translate(-6.72 -8.31)"/><text class="cls-2" transform="translate(0 52.37)">Caly<tspan x="126.92" y="0">p</tspan><tspan x="162.73" y="0">harma</tspan><tspan class="cls-3"><tspan x="99.85" y="54.73"> </tspan><tspan class="cls-4" x="109.39" y="54.73">C</tspan><tspan class="cls-5" x="135.66" y="54.73">ONSU</tspan><tspan class="cls-6" x="242.66" y="54.73">L</tspan><tspan class="cls-5" x="258.88" y="54.73">TING</tspan></tspan></text></svg>