<?xml version="1.0" encoding="utf-8"?>
<!-- Generator: Adobe Illustrator 19.2.0, SVG Export Plug-In . SVG Version: 6.00 Build 0)  -->
<svg version="1.1" id="Layer_1" xmlns="http://www.w3.org/2000/svg" xmlns:xlink="http://www.w3.org/1999/xlink" x="0px" y="0px"
	 viewBox="0 0 480.9 152" style="enable-background:new 0 0 480.9 152;" xml:space="preserve">
<style type="text/css">
	.st0{fill:#59AD70;}
	.st1{enable-background:new    ;}
	.st2{fill:#FFFFFF;}
</style>
<title>calypharma</title>
<path class="st0" d="M456.3,92.9c-15.9-19.4-31.5-39-47.9-58c-7.3-8.4-16-15.6-24.3-23.1c-4.9-4.7-6.1-6.6-10.2-5.4
	c13.6,48.7,21.2,95.4,13.6,145.7c4.8-8.3,9.3-27.9,10.2-51.7c0.7-18.5,1.5-33.3,1.3-51.9c-0.5-0.1,0.3-0.2,0.6,0.2
	c17.9,17.1,34.4,30.1,51.7,47.8c7,7.2,12.2,16.2,18.3,24.3c0.2,0.2,7,10.6,7.3,10.5s-4.6-14.9-4.5-15.2
	C467.6,107,461.2,102,456.3,92.9z"/>
<path class="st0" d="M370.5,7.1c-6,3.7-7.2,8.8-7.9,14.2c-1.4,11.8,2.5,22.9,5.4,34c6.5,24.8,14.9,49.2,17.1,75
	c0.5,5.4,1.6,16.3,2.4,21.7c1.3-11.8,3.5-22.6,2.7-34.2S380.8,41.7,370.5,7.1z"/>
<path class="st0" d="M456.3,92.9l14.5,27.4l2.5,5.9l1.3-0.4c-0.7-3.2-1.2-6.5-2.2-9.7c-11.1-35-29.1-66.2-54.2-92.9
	c-6.1-6.5-13.5-12.3-22-15.9c-4.3-1.9-9.2-2.4-13.8-1.4c5.4,5,12.4,11.5,17.5,16.3c19.1,18.2,36.1,38.4,50.8,60.3
	C452.8,85.8,454.5,89.4,456.3,92.9z"/>
<g class="st1">
	<path class="st2" d="M11.8,50.2c-3-1.9-5.4-4.4-7.1-7.8C3,39,2.2,35.2,2.2,30.9c0-4.6,1-8.5,2.9-11.7C7,16,9.6,13.6,12.8,12
		c3.2-1.6,6.6-2.4,10.3-2.4c2.5,0,4.9,0.3,7.1,0.8c2.2,0.5,4.4,1.3,6.8,2.5c-0.5,2.2-0.7,5.4-0.7,9.7c-0.9,0.4-2,0.6-3.3,0.6
		c-0.2-4.2-1-7-2.6-8.6c-1.5-1.6-3.8-2.3-6.8-2.3c-3.4,0-6.2,0.8-8.4,2.4c-2.2,1.6-3.8,3.7-4.9,6.2c-1,2.6-1.6,5.4-1.6,8.5
		c0,3.7,0.6,7.1,1.9,10.2c1.3,3,3.1,5.4,5.5,7.1c2.4,1.7,5.2,2.6,8.5,2.6c2,0,4-0.3,6.1-1c2.1-0.7,4-1.6,5.8-2.7
		c0.2,0.2,0.5,0.5,0.7,0.9c0.2,0.4,0.4,0.7,0.4,1c-2.5,2-5,3.4-7.4,4.2c-2.4,0.9-5.1,1.3-8.2,1.3C18.2,52.9,14.8,52,11.8,50.2z"/>
	<path class="st2" d="M65.8,46.2c0.2,0.6,0.6,1.1,1.1,1.4c0.5,0.3,1.4,0.5,2.5,0.6c0,1.2-0.1,2.2-0.4,2.9c-1,0.1-2.2,0.3-3.5,0.7
		c-1.3,0.4-2.4,0.8-3.3,1.3c-0.5-0.2-0.9-0.6-1.1-1.2s-0.4-1.4-0.4-2.5c0-0.7,0-1.2,0.1-1.6c-0.5,1.2-1.2,2.2-2.2,3.1
		c-1.6,1.4-3.8,2.1-6.6,2.1c-2.6,0-4.6-0.6-6-1.8c-1.4-1.2-2.1-2.8-2.1-4.9c0-2.5,0.9-4.4,2.7-5.9c1.8-1.5,3.8-2.5,6-3.2
		c2.2-0.6,4.6-1.1,7.3-1.5c0-2.5-0.1-4.3-0.2-5.3c-0.2-1-0.5-1.8-1.1-2.5c-1-1.2-2.3-1.9-3.9-1.9c-1.9,0-3.2,0.8-4.1,2.3
		c-0.9,1.5-1.3,3.2-1.4,4.9c-0.5,0-1.1,0-1.8-0.1c-0.7-0.1-1.1-0.2-1.4-0.3c0-0.4,0.1-1.1,0.1-2.1c0-1.8-0.1-3.4-0.4-4.7
		c1.7-0.9,3.5-1.6,5.4-2.1s3.7-0.7,5.2-0.7c2.8,0,5,0.8,6.6,2.4c1,1,1.7,2.3,2.1,4c0.4,1.6,0.6,3.9,0.6,6.8v6.9
		C65.6,44.5,65.6,45.5,65.8,46.2z M59.9,38.2c-2,0.2-3.7,0.6-5,0.9c-1.3,0.4-2.5,1-3.5,1.9c-1,0.9-1.5,2.2-1.5,3.9
		c0,1.5,0.4,2.6,1.1,3.3c0.7,0.8,1.6,1.1,2.7,1.1c1,0,2-0.3,2.9-0.9c0.9-0.6,1.7-1.6,2.3-2.9c0.6-1.3,0.9-3,0.9-4.9V38.2z"/>
	<path class="st2" d="M74.5,49.9c1.7,0,2.8-0.4,3.4-1.2c0.6-0.8,0.9-2.2,0.9-4.3v-28c0-1.1-0.1-1.9-0.3-2.6
		c-0.2-0.6-0.6-1.1-1.3-1.4c-0.7-0.3-1.7-0.5-3.1-0.5c0-1,0.2-1.7,0.6-2.3c1,0,2.5-0.2,4.4-0.7C81,8.5,82.3,8.1,83,7.6
		c0.9,0.3,1.4,1.1,1.4,2.5v34.4c0,2.1,0.3,3.5,0.8,4.3c0.5,0.8,1.5,1.2,2.9,1.2c0.2,0.7,0.3,1.6,0.3,2.7c-2.2-0.1-4.5-0.2-7.1-0.2
		c-2.7,0-5.1,0.1-7.2,0.2C74.2,51.4,74.3,50.5,74.5,49.9z"/>
	<path class="st2" d="M123.5,23.6c0,1.2-0.1,2.1-0.4,2.7c-1.1,0.3-2,0.8-2.6,1.6c-0.6,0.8-1.4,2.4-2.5,4.9l-9.2,21.9
		c-1.6,3.7-2.9,6.6-4.1,8.4c-1.1,1.9-2.2,3.1-3.2,3.8c-1,0.7-2.2,1-3.6,1c-1.9,0-3.4-0.5-4.7-1.4c-0.1-0.5-0.2-1.1-0.2-1.9
		c0-0.9,0.1-1.8,0.2-2.6c1.4,0.2,2.7,0.4,4,0.4c2.7,0,4.8-1.2,6.3-3.7c0.7-1,1.7-3,2.9-5.8c-2.2-5.1-5.1-11.4-8.5-18.8
		c-1-2.1-1.8-3.6-2.4-4.7c-0.6-1-1.2-1.8-1.8-2.2c-0.5-0.4-1.2-0.7-1.9-0.8c-0.2-0.8-0.4-1.6-0.4-2.7c3.2,0.1,5.5,0.1,7.1,0.1
		c2.1,0,4.9,0,8.3-0.1c0,1.1-0.1,2-0.4,2.7c-1.4,0.2-2.4,0.5-3.1,1s-0.9,1.1-0.9,1.8c0,0.9,0.4,2.2,1.3,4.1
		c1.4,2.9,3.3,7.2,5.6,12.9l0.6-1.4l4.3-10.9c0.7-1.8,1.1-3.2,1.1-4.1c0-1-0.3-1.7-0.9-2.2c-0.6-0.5-1.6-0.8-2.9-1.1
		c-0.3-0.8-0.4-1.7-0.4-2.7c1.3,0.1,3.4,0.1,6.2,0.1C120.1,23.7,122.2,23.7,123.5,23.6z"/>
</g>
<g class="st1">
	<path class="st2" d="M139.5,52.1v6.2c0,1.8,0.2,3.2,0.6,4.1c0.4,0.9,0.9,1.6,1.7,1.9c0.8,0.4,1.9,0.6,3.3,0.7
		c0.2,0.6,0.3,1.5,0.3,2.7c-1.9-0.1-4.5-0.2-7.9-0.2c-3.9,0-6.6,0.1-8.2,0.2c0-1.2,0.1-2.1,0.3-2.7c1.7-0.1,2.8-0.5,3.4-1.2
		c0.6-0.7,0.9-2.1,0.9-4.2V32.1c0-1.1-0.1-1.9-0.3-2.5c-0.2-0.6-0.7-1.1-1.3-1.4c-0.7-0.3-1.7-0.5-3-0.5c0-1,0.2-1.7,0.6-2.3
		c1.3-0.1,2.8-0.3,4.4-0.8c1.7-0.4,3-0.9,3.9-1.4c0.9,0.3,1.4,1.2,1.4,2.7c0,0.7-0.1,1.3-0.2,1.9c-0.1,0.6-0.4,1.5-0.7,2.6
		c0.4-0.8,0.9-1.7,1.4-2.6c0.7-1.1,1.8-2.2,3.3-3.2c1.6-1,3.3-1.5,5.2-1.5c3.8,0,6.6,1.1,8.7,3.3c2,2.2,3,5.5,3,10
		c0,3.1-0.6,5.9-1.9,8.4c-1.3,2.5-3.1,4.5-5.5,5.9c-2.4,1.4-5.1,2.2-8.1,2.2C143,52.9,141.2,52.6,139.5,52.1z M141.7,30.1
		c-1.5,2-2.2,5-2.2,9v8.8c0.8,0.7,1.6,1.2,2.5,1.6c0.9,0.4,1.9,0.6,3,0.6c1.4,0,2.8-0.4,4.1-1.1c1.4-0.7,2.5-2,3.5-3.8
		c1-1.8,1.4-4.3,1.4-7.3c0-3.2-0.7-5.9-2-7.8c-1.3-2-3-2.9-5-2.9C145,27.1,143.2,28.1,141.7,30.1z"/>
</g>
<g class="st1">
	<path class="st2" d="M197.7,52.6c-1.8-0.1-4.1-0.2-6.8-0.2c-1.7,0-3.8,0-6.2,0.1c-0.3,0-0.7,0.1-1.2,0.1c0-1.2,0.1-2.1,0.3-2.7
		c1.5,0,2.6-0.4,3.3-1.2c0.7-0.8,1-2.2,1-4.2v-9.5c0-2.7-0.5-4.7-1.5-5.9c-1-1.2-2.4-1.8-4.3-1.8c-1.2,0-2.3,0.4-3.4,1.1
		c-1.1,0.7-2,1.9-2.7,3.4c-0.7,1.6-1,3.6-1,5.9v6.7c0,2.1,0.3,3.5,0.9,4.3c0.6,0.8,1.8,1.2,3.4,1.2c0.2,0.6,0.3,1.5,0.3,2.7
		c-3.5-0.1-6-0.2-7.4-0.2c-3.1,0-5.6,0.1-7.4,0.2c0-1.2,0.1-2.1,0.3-2.7c1.6,0,2.7-0.4,3.4-1.2c0.6-0.8,0.9-2.2,0.9-4.3v-28
		c0-1.1-0.1-1.9-0.3-2.6c-0.2-0.6-0.6-1.1-1.3-1.4c-0.7-0.3-1.7-0.5-3.1-0.5c0-1,0.2-1.7,0.6-2.3c1,0,2.5-0.2,4.4-0.7
		c1.9-0.5,3.2-0.9,3.9-1.4c0.9,0.3,1.4,1.1,1.4,2.5v15.9c0,1.3-0.1,2.6-0.4,3.7c0.1-0.1,0.2-0.3,0.3-0.7c0.1-0.3,0.3-0.6,0.6-1
		c0.8-1.2,2.1-2.2,3.7-3.1c1.6-0.9,3.4-1.4,5.4-1.4c2.6,0,4.8,0.8,6.4,2.4c1.7,1.6,2.5,4.2,2.5,7.7v10.7c0,2.1,0.3,3.5,0.9,4.3
		c0.6,0.8,1.5,1.2,2.8,1.2C197.6,50.5,197.7,51.4,197.7,52.6z"/>
	<path class="st2" d="M225,46.2c0.2,0.6,0.6,1.1,1.1,1.4c0.5,0.3,1.4,0.5,2.5,0.6c0,1.2-0.1,2.2-0.4,2.9c-1,0.1-2.2,0.3-3.5,0.7
		c-1.3,0.4-2.4,0.8-3.3,1.3c-0.5-0.2-0.9-0.6-1.1-1.2s-0.4-1.4-0.4-2.5c0-0.7,0-1.2,0.1-1.6c-0.5,1.2-1.2,2.2-2.2,3.1
		c-1.6,1.4-3.8,2.1-6.6,2.1c-2.6,0-4.6-0.6-6-1.8c-1.4-1.2-2.1-2.8-2.1-4.9c0-2.5,0.9-4.4,2.7-5.9c1.8-1.5,3.8-2.5,6-3.2
		c2.2-0.6,4.6-1.1,7.3-1.5c0-2.5-0.1-4.3-0.2-5.3c-0.2-1-0.5-1.8-1.1-2.5c-1-1.2-2.3-1.9-3.9-1.9c-1.9,0-3.2,0.8-4.1,2.3
		c-0.9,1.5-1.3,3.2-1.4,4.9c-0.5,0-1.1,0-1.8-0.1c-0.7-0.1-1.1-0.2-1.4-0.3c0-0.4,0.1-1.1,0.1-2.1c0-1.8-0.1-3.4-0.4-4.7
		c1.7-0.9,3.5-1.6,5.4-2.1s3.7-0.7,5.2-0.7c2.8,0,5,0.8,6.6,2.4c1,1,1.7,2.3,2.1,4c0.4,1.6,0.6,3.9,0.6,6.8v6.9
		C224.7,44.5,224.8,45.5,225,46.2z M219.1,38.2c-2,0.2-3.7,0.6-5,0.9c-1.3,0.4-2.5,1-3.5,1.9c-1,0.9-1.5,2.2-1.5,3.9
		c0,1.5,0.4,2.6,1.1,3.3c0.7,0.8,1.6,1.1,2.7,1.1c1,0,2-0.3,2.9-0.9c0.9-0.6,1.7-1.6,2.3-2.9c0.6-1.3,0.9-3,0.9-4.9V38.2z"/>
	<path class="st2" d="M256,25.2c-0.3,1.9-0.4,4.4-0.4,7.4c-1.1,0.4-2.3,0.6-3.6,0.6c-0.1-1.9-0.4-3.2-0.9-3.8c-0.5-0.7-1.2-1-2.2-1
		c-0.8,0-1.5,0.4-2.4,1.2c-0.8,0.8-1.5,1.9-2.1,3.3c-0.6,1.4-0.8,2.8-0.8,4.4v6c0,1.8,0.2,3.2,0.6,4.1c0.4,0.9,0.9,1.6,1.7,1.9
		c0.8,0.4,1.9,0.6,3.3,0.7c0.2,0.6,0.3,1.5,0.3,2.7c-1.9-0.1-4.5-0.2-7.9-0.2c-3.9,0-6.6,0.1-8.2,0.2c0-1.2,0.1-2.1,0.3-2.7
		c1.7-0.1,2.8-0.5,3.4-1.2c0.6-0.7,0.9-2.1,0.9-4.2V32.1c0-1.1-0.1-1.9-0.3-2.5c-0.2-0.6-0.7-1.1-1.3-1.4c-0.7-0.3-1.7-0.5-3-0.5
		c0-1,0.2-1.7,0.6-2.3c1.3-0.1,2.8-0.3,4.4-0.8c1.7-0.4,3-0.9,3.9-1.4c0.9,0.3,1.4,1.2,1.4,2.7c0,1.4-0.1,2.7-0.4,4
		c-0.2,1.2-0.4,1.9-0.4,2.2c0.1-0.2,0.2-0.8,0.5-1.5s0.5-1.3,0.8-1.7c2.1-3.4,4.6-5.1,7.6-5.1C253.3,23.7,254.7,24.2,256,25.2z"/>
	<path class="st2" d="M310.3,52.6c-1.9-0.1-4.1-0.2-6.8-0.2c-2.9,0-5.4,0.1-7.4,0.2c0-1.2,0.1-2.1,0.3-2.7c1.7-0.1,2.8-0.5,3.4-1.2
		c0.6-0.7,0.9-2.1,0.9-4.2v-9.5c0-2.8-0.5-4.8-1.5-5.9c-1-1.1-2.4-1.7-4.2-1.7c-1.2,0-2.3,0.4-3.3,1.1c-1,0.7-1.9,1.9-2.6,3.4
		c-0.7,1.6-1,3.6-1,5.9v6.7c0,2.1,0.3,3.5,0.9,4.2c0.6,0.7,1.8,1.1,3.4,1.2c0.2,0.6,0.3,1.5,0.3,2.7c-2.1-0.1-4.6-0.2-7.4-0.2
		c-2.7,0-5.2,0.1-7.4,0.2c0-1.2,0.1-2.1,0.3-2.7c1.7-0.1,2.8-0.5,3.4-1.2c0.6-0.7,0.9-2.1,0.9-4.2v-9.8c0-2.8-0.5-4.8-1.5-5.9
		c-1-1.1-2.4-1.7-4.2-1.7c-1.2,0-2.3,0.4-3.3,1.1c-1,0.7-1.9,1.9-2.6,3.4c-0.7,1.6-1,3.6-1,5.9v7c0,2,0.3,3.4,0.9,4.2
		s1.8,1.2,3.4,1.2c0.2,0.6,0.3,1.5,0.3,2.7c-2.1-0.1-4.6-0.2-7.4-0.2c-3,0-5.4,0.1-7.4,0.2c0-1.2,0.1-2.1,0.3-2.7
		c1.7-0.1,2.8-0.5,3.4-1.2c0.6-0.7,0.9-2.1,0.9-4.2V32.1c0-1.1-0.1-1.9-0.3-2.5c-0.2-0.6-0.7-1.1-1.3-1.4c-0.7-0.3-1.7-0.5-3-0.5
		c0-1,0.2-1.7,0.6-2.3c1.1-0.1,2.5-0.3,4.2-0.8s3-0.9,3.8-1.3c0.9,0.3,1.4,1.1,1.4,2.5c0,1-0.1,2.3-0.2,4c0.5-1.2,0.8-1.8,1-2
		c0.8-1.2,2-2.2,3.6-3.1c1.6-0.9,3.4-1.4,5.4-1.4c1.9,0,3.5,0.4,4.9,1.3c1.4,0.9,2.4,2.2,3.1,4c0.2,0.6,0.2,1.1,0.2,1.6
		c0.3-0.8,0.6-1.5,1.1-2c0.8-1.2,2-2.2,3.6-3.1c1.6-0.9,3.3-1.4,5.3-1.4c2.6,0,4.7,0.8,6.3,2.4c1.6,1.6,2.5,4.2,2.5,7.7v10.7
		c0,2,0.3,3.4,0.8,4.2s1.5,1.2,2.9,1.2C310.2,50.5,310.3,51.4,310.3,52.6z"/>
	<path class="st2" d="M337.6,46.2c0.2,0.6,0.6,1.1,1.1,1.4c0.5,0.3,1.4,0.5,2.5,0.6c0,1.2-0.1,2.2-0.4,2.9c-1,0.1-2.2,0.3-3.5,0.7
		c-1.3,0.4-2.4,0.8-3.3,1.3c-0.5-0.2-0.9-0.6-1.1-1.2s-0.4-1.4-0.4-2.5c0-0.7,0-1.2,0.1-1.6c-0.5,1.2-1.2,2.2-2.2,3.1
		c-1.6,1.4-3.8,2.1-6.6,2.1c-2.6,0-4.6-0.6-6-1.8c-1.4-1.2-2.1-2.8-2.1-4.9c0-2.5,0.9-4.4,2.7-5.9c1.8-1.5,3.8-2.5,6-3.2
		c2.2-0.6,4.6-1.1,7.3-1.5c0-2.5-0.1-4.3-0.2-5.3c-0.2-1-0.5-1.8-1.1-2.5c-1-1.2-2.3-1.9-3.9-1.9c-1.9,0-3.2,0.8-4.1,2.3
		c-0.9,1.5-1.3,3.2-1.4,4.9c-0.5,0-1.1,0-1.8-0.1c-0.7-0.1-1.1-0.2-1.4-0.3c0-0.4,0.1-1.1,0.1-2.1c0-1.8-0.1-3.4-0.4-4.7
		c1.7-0.9,3.5-1.6,5.4-2.1s3.7-0.7,5.2-0.7c2.8,0,5,0.8,6.6,2.4c1,1,1.7,2.3,2.1,4c0.4,1.6,0.6,3.9,0.6,6.8v6.9
		C337.3,44.5,337.4,45.5,337.6,46.2z M331.7,38.2c-2,0.2-3.7,0.6-5,0.9c-1.3,0.4-2.5,1-3.5,1.9c-1,0.9-1.5,2.2-1.5,3.9
		c0,1.5,0.4,2.6,1.1,3.3c0.7,0.8,1.6,1.1,2.7,1.1c1,0,2-0.3,2.9-0.9c0.9-0.6,1.7-1.6,2.3-2.9c0.6-1.3,0.9-3,0.9-4.9V38.2z"/>
</g>
<g class="st1">
</g>
<g class="st1">
	<path class="st2" d="M128,103.2c-0.4,0.6-0.9,1.2-1.5,1.7c-0.6,0.5-1.3,1-2,1.4c-0.8,0.4-1.6,0.7-2.5,1c-0.9,0.2-1.9,0.4-3,0.4
		c-1.8,0-3.5-0.3-5.1-1c-1.6-0.6-2.9-1.5-4-2.7c-1.1-1.1-2-2.5-2.6-4c-0.6-1.6-0.9-3.2-0.9-5.1c0-1.8,0.3-3.5,1-5.1
		c0.6-1.6,1.5-2.9,2.7-4c1.1-1.1,2.5-2,4-2.7c1.5-0.6,3.2-1,5-1c0.9,0,1.8,0.1,2.6,0.3c0.9,0.2,1.7,0.4,2.4,0.8
		c0.8,0.3,1.4,0.7,2.1,1.2c0.6,0.5,1.1,1,1.5,1.6l-2.1,1.5c-0.3-0.4-0.6-0.8-1-1.2c-0.4-0.4-0.9-0.7-1.5-1c-0.6-0.3-1.2-0.5-1.9-0.7
		c-0.7-0.2-1.4-0.3-2.2-0.3c-1.6,0-3,0.3-4.2,0.9s-2.3,1.3-3.2,2.3c-0.9,1-1.5,2.1-2,3.4c-0.5,1.3-0.7,2.6-0.7,4
		c0,1.4,0.2,2.8,0.7,4s1.1,2.4,2,3.4c0.9,1,1.9,1.7,3.2,2.3s2.6,0.9,4.2,0.9c1.4,0,2.7-0.3,4-0.9c1.3-0.6,2.3-1.5,3.1-2.7L128,103.2
		z"/>
</g>
<g class="st1">
	<path class="st2" d="M157.8,95c0,1.8-0.3,3.5-1,5.1c-0.6,1.6-1.5,2.9-2.7,4s-2.5,2-4,2.7c-1.5,0.6-3.2,1-5,1s-3.5-0.3-5-1
		c-1.5-0.6-2.9-1.5-4-2.7c-1.1-1.1-2-2.5-2.7-4c-0.6-1.6-1-3.2-1-5.1c0-1.8,0.3-3.5,1-5.1c0.6-1.6,1.5-2.9,2.7-4
		c1.1-1.1,2.5-2,4-2.7c1.5-0.6,3.2-1,5-1s3.5,0.3,5,1c1.5,0.6,2.9,1.5,4,2.7c1.1,1.1,2,2.5,2.7,4C157.5,91.4,157.8,93.1,157.8,95z
		 M155.2,95c0-1.4-0.2-2.8-0.7-4c-0.5-1.3-1.1-2.4-2-3.4c-0.9-1-1.9-1.7-3.2-2.3s-2.6-0.9-4.2-0.9s-2.9,0.3-4.2,0.9
		s-2.3,1.3-3.2,2.3c-0.9,1-1.5,2.1-2,3.4c-0.5,1.3-0.7,2.6-0.7,4s0.2,2.8,0.7,4c0.5,1.3,1.1,2.4,2,3.3c0.9,1,1.9,1.7,3.2,2.3
		s2.6,0.9,4.2,0.9s2.9-0.3,4.2-0.9s2.3-1.3,3.2-2.3c0.9-1,1.5-2.1,2-3.3C155,97.8,155.2,96.4,155.2,95z"/>
	<path class="st2" d="M182.1,103.5L182.1,103.5l0.1-20.6h2.5v24.2h-3.1l-14.1-20.8h-0.1v20.8h-2.5V82.9h3.1L182.1,103.5z"/>
	<path class="st2" d="M204.8,86.8c-0.5-0.7-1.2-1.3-2-1.8c-0.8-0.4-1.8-0.7-3-0.7c-0.6,0-1.2,0.1-1.8,0.3c-0.6,0.2-1.2,0.5-1.7,0.8
		c-0.5,0.4-0.9,0.8-1.2,1.4c-0.3,0.6-0.5,1.2-0.5,2s0.1,1.4,0.4,1.9c0.3,0.5,0.7,0.9,1.2,1.3c0.5,0.4,1,0.6,1.7,0.9
		c0.6,0.2,1.3,0.5,2,0.7c0.8,0.3,1.7,0.6,2.5,0.9c0.9,0.3,1.6,0.7,2.3,1.2c0.7,0.5,1.2,1.2,1.7,2c0.4,0.8,0.6,1.8,0.6,3
		c0,1.2-0.2,2.3-0.7,3.1s-1.1,1.6-1.8,2.2c-0.7,0.6-1.6,1-2.5,1.3c-0.9,0.3-1.9,0.4-2.9,0.4c-0.7,0-1.5-0.1-2.2-0.2
		c-0.7-0.1-1.4-0.4-2.1-0.7c-0.7-0.3-1.3-0.7-1.8-1.1c-0.6-0.5-1.1-1-1.5-1.6l2.1-1.6c0.5,0.9,1.3,1.6,2.2,2.2
		c0.9,0.6,2.1,0.9,3.3,0.9c0.6,0,1.2-0.1,1.9-0.3c0.6-0.2,1.2-0.5,1.7-0.9c0.5-0.4,0.9-0.9,1.3-1.5c0.3-0.6,0.5-1.3,0.5-2
		c0-0.8-0.2-1.5-0.5-2.1c-0.3-0.6-0.8-1-1.3-1.4c-0.5-0.4-1.2-0.7-1.9-0.9s-1.4-0.5-2.2-0.8c-0.8-0.3-1.6-0.5-2.4-0.9
		s-1.5-0.7-2.1-1.2c-0.6-0.5-1.1-1.1-1.5-1.9c-0.4-0.8-0.6-1.7-0.6-2.8c0-1.2,0.2-2.2,0.7-3s1.1-1.5,1.8-2.1
		c0.8-0.5,1.6-0.9,2.5-1.2c0.9-0.3,1.8-0.4,2.7-0.4c1.6,0,3,0.3,4.2,0.9s2,1.3,2.6,2.1L204.8,86.8z"/>
	<path class="st2" d="M223.3,107.7c-1.8,0-3.3-0.3-4.5-0.9s-2.1-1.4-2.8-2.4c-0.7-1-1.2-2-1.4-3.1c-0.3-1.1-0.4-2.2-0.4-3.2V82.9
		h2.5v14.9c0,1,0.1,1.9,0.3,2.9c0.2,0.9,0.6,1.7,1.1,2.5c0.5,0.7,1.2,1.3,2,1.7c0.8,0.4,1.9,0.7,3.1,0.7s2.3-0.2,3.1-0.7
		c0.8-0.4,1.5-1,2-1.7c0.5-0.7,0.9-1.5,1.1-2.5c0.2-0.9,0.3-1.9,0.3-2.9V82.9h2.5v15.2c0,1-0.1,2.1-0.4,3.2
		c-0.3,1.1-0.7,2.2-1.4,3.1c-0.7,1-1.6,1.8-2.8,2.4C226.6,107.4,225.1,107.7,223.3,107.7z"/>
</g>
<g class="st1">
	<path class="st2" d="M243.3,104.9h11.3v2.2h-13.8V82.9h2.5V104.9z"/>
</g>
<g class="st1">
	<path class="st2" d="M264.9,107.1h-2.5v-22h-8.1v-2.2H273v2.2h-8.1V107.1z"/>
	<path class="st2" d="M281,107.1h-2.5V82.9h2.5V107.1z"/>
	<path class="st2" d="M306.6,103.5L306.6,103.5l0.1-20.6h2.5v24.2h-3.1L292,86.3h-0.1v20.8h-2.5V82.9h3.1L306.6,103.5z"/>
	<path class="st2" d="M335.9,87.3c-0.8-0.9-1.8-1.6-3-2.1s-2.5-0.7-4-0.7c-1.6,0-2.9,0.3-4.2,0.9s-2.3,1.3-3.2,2.3
		c-0.9,1-1.5,2.1-2,3.4s-0.7,2.6-0.7,4s0.2,2.8,0.7,4s1.1,2.4,2,3.3c0.9,1,1.9,1.7,3.2,2.3s2.6,0.9,4.2,0.9c1.4,0,2.6-0.1,3.8-0.4
		c1.1-0.3,2.1-0.7,2.8-1.1v-7.4h-5.6v-2.2h8.1v10.9c-1.3,0.8-2.7,1.4-4.3,1.8c-1.5,0.4-3.1,0.6-4.8,0.6c-1.8,0-3.5-0.3-5.1-1
		c-1.6-0.6-2.9-1.5-4-2.7c-1.1-1.1-2-2.5-2.6-4c-0.6-1.6-0.9-3.2-0.9-5.1c0-1.8,0.3-3.5,1-5.1c0.6-1.6,1.5-2.9,2.7-4
		c1.1-1.1,2.5-2,4-2.7c1.5-0.6,3.2-1,5-1c1.9,0,3.6,0.3,5.1,0.9c1.4,0.6,2.7,1.4,3.7,2.4L335.9,87.3z"/>
</g>
</svg>
