<?xml version="1.0" encoding="utf-8"?>
<!-- Generator: Adobe Illustrator 19.2.0, SVG Export Plug-In . SVG Version: 6.00 Build 0)  -->
<svg version="1.1" id="Layer_1" xmlns="http://www.w3.org/2000/svg" xmlns:xlink="http://www.w3.org/1999/xlink" x="0px" y="0px"
	 viewBox="0 0 200 200" style="enable-background:new 0 0 200 200;" xml:space="preserve">
<style type="text/css">
	.st0{fill:#59AD70;}
</style>
<g>
	<path class="st0" d="M178.9,148c-0.1,0.3,6.2,19.8,5.9,19.9c-0.3,0.2-9.3-13.4-9.5-13.7c-7.9-10.7-14.7-22.4-23.9-31.8
		c-22.7-23.1-44.3-40.2-67.7-62.6c-0.4-0.5-1.4-0.5-0.8-0.3c0.2,24.4-0.8,43.7-1.7,67.9c-1.1,31-7.1,56.8-13.3,67.6
		c9.9-65.7,0-126.9-17.8-190.6c5.3-1.6,6.9,0.9,13.3,7.1c10.9,9.7,22.3,19.2,31.8,30.2c21.4,24.8,41.9,50.5,62.7,75.9
		C164.2,129.6,172.6,136.1,178.9,148z"/>
	<path class="st0" d="M71.3,150.4c1.1,15.1-1.8,29.3-3.5,44.7c-1-7-2.5-21.3-3.1-28.4c-3-33.8-13.9-65.7-22.4-98.2
		c-3.9-14.6-8.9-29-7.1-44.5c0.8-7,2.5-13.7,10.3-18.6C59.1,50.7,70.3,135.1,71.3,150.4z"/>
	<path class="st0" d="M150.4,104.1c-19.3-28.8-41.5-55-66.5-78.9c-6.6-6.3-15.7-14.8-22.8-21.3c7.6-1.6,13.2-0.3,18.1,1.8
		c11.1,4.6,20.7,12.2,28.7,20.7c33,34.9,56.4,75.8,71,121.6c1.3,4.1,1.9,8.5,2.9,12.7c-0.6,0.1-1.1,0.3-1.7,0.5
		c-1-2.5-2.1-5.1-3.2-7.7c-6.3-12-12.7-23.9-19-35.9C155.4,113.1,153.2,108.4,150.4,104.1z"/>
</g>
</svg>
